/* XPM */
static char *b617e6b7acd44836db6bceb57e6a32f9WmrRMSCyn12HXlsf[] = {
/* columns rows colors chars-per-pixel */
"32 32 146 2 ",
"   c #1E1107",
".  c #1D1513",
"X  c #1F1917",
"o  c #1D1D1C",
"O  c #22150B",
"+  c #25190F",
"@  c #221414",
"#  c #221916",
"$  c #2A1D15",
"%  c #241D1A",
"&  c #291D1B",
"*  c #381F11",
"=  c #292117",
"-  c #25211E",
";  c #2A221D",
":  c #302113",
">  c #332619",
",  c #332A1F",
"<  c #231F21",
"1  c #2A1F20",
"2  c #252221",
"3  c #2B2423",
"4  c #2E2926",
"5  c #2E2B28",
"6  c #322623",
"7  c #332B25",
"8  c #392F26",
"9  c #342C2B",
"0  c #3A2F2E",
"q  c #35312D",
"w  c #3A322E",
"e  c #353332",
"r  c #3D3432",
"t  c #3F3A36",
"y  c #3D3538",
"u  c #3E3B39",
"i  c #41332E",
"p  c #433535",
"a  c #493736",
"s  c #443936",
"d  c #4A3D36",
"f  c #413738",
"g  c #4A3638",
"h  c #453B3A",
"j  c #4A3D3C",
"k  c #513F3C",
"l  c #494035",
"z  c #46403D",
"x  c #4C413E",
"c  c #53423D",
"v  c #564B3F",
"b  c #5F483D",
"n  c #463F40",
"m  c #493E40",
"M  c #513E40",
"N  c #474040",
"B  c #4D4341",
"V  c #4D4845",
"C  c #534443",
"Z  c #594244",
"A  c #534946",
"S  c #594A43",
"D  c #574748",
"F  c #554B4A",
"G  c #594A4B",
"H  c #5D5146",
"J  c #5F5049",
"K  c #614C43",
"L  c #625449",
"P  c #64584F",
"I  c #68584C",
"U  c #615755",
"Y  c #665A52",
"T  c #6D5C53",
"R  c #665B59",
"E  c #6D5E5C",
"W  c #725B53",
"Q  c #725E5C",
"!  c #6E615D",
"~  c #716153",
"^  c #796053",
"/  c #74625C",
"(  c #796B5D",
")  c #745F61",
"_  c #6D6261",
"`  c #736463",
"'  c #796364",
"]  c #766963",
"[  c #7B6966",
"{  c #766E6A",
"}  c #796B69",
"|  c #826C5D",
" . c #817060",
".. c #83736B",
"X. c #8A766A",
"o. c #8B7B6C",
"O. c #93796C",
"+. c #8C7D74",
"@. c #907D74",
"#. c #8F8276",
"$. c #948274",
"%. c #9B8175",
"&. c #94847A",
"*. c #9B8479",
"=. c #9C8A7C",
"-. c #A08578",
";. c #A28A7B",
":. c #A5917E",
">. c #9D8C82",
",. c #A48F82",
"<. c #A59183",
"1. c #AA9385",
"2. c #AA9A85",
"3. c #A6948B",
"4. c #AA9589",
"5. c #AE9C8C",
"6. c #B19688",
"7. c #B59C8D",
"8. c #B99D8E",
"9. c #AA9991",
"0. c #B99E91",
"q. c #BCA48F",
"w. c #B3A293",
"e. c #BAA092",
"r. c #B9A69C",
"t. c #C7AB9D",
"y. c #C2AE9D",
"u. c #C2B0A0",
"i. c #CAB7AA",
"p. c #D7C4B4",
"a. c #DFC2B3",
"s. c #DFC3B4",
"d. c #DFC5B7",
"f. c #D8C7B8",
"g. c #DFC5B9",
"h. c #DDC8BA",
"j. c #DDCABC",
"k. c #E2C4B7",
"l. c #E3C8BB",
"z. c #E7CEBC",
"x. c #EACDBE",
"c. c #DAC8C0",
"v. c #DDD0C2",
"b. c #E3CBC0",
"n. c #E2D0C4",
"m. c #E9D4C5",
/* pixels */
"~ o.@.o...> c @.o.O.X.o.( ; 6 w X.o.o.o.o.X.+...% c $.X.X.+.w 7 ",
" .<.<.4.&.> H 3.,.<.<.2.$.$ i L =.4.<.<.4.>.3.>.& L w.,.>.<.l 8 ",
"| ,.;.,.$.> H ,.;.;.;.:.o.+ T >.=.;.;.;.;.4.3.&.$ S :.=.<.=.l , ",
"O.e.7.e.<.: L w.0.8.7.q.;.  / r.7.8.8.e.1.| <.9.$ I y.5.5.w.x 8 ",
"6.l.g.b.i.> ( j.d.k.s.z.u.O +.n.h.d.a.x.t.* ,.c.+ ( m.p.f.v.H 8 ",
"^ ;.%.*.+.> v &.*.%.%.*.X.+ P >.$.%.-.%.O.b X.&.$ L =.$.&.#.d 8 ",
"K W W / J = s ! T W W W L = d E T W W W W / Q Y # d ~ T T Y w ; ",
"p c k C x ; 7 C j c c c d # r B C k k c c c x x 3 9 S d d A 7 ; ",
"r a a s r - 5 z a g g a y 2 e h s a s s g a s s % 9 d s d p 3 3 ",
"e m B 9 - 2 e h m j j n u o e B z r % f B B N h o e x d s - - 3 ",
"e y f 7 & % 5 r f p r y e 2 9 r r 0 % e r r r e 3 9 r r 0 % 3 3 ",
". # # # # # . @ @ @ @ % o % X X % # # # . @ @ . % . # % # % . # ",
"V d & p C x C C Z C C 9 4 x B x ; 8 B x x x C x C x C 3 3 A B B ",
"{ U 6 D [ / ] / [ ' } 0 7 ] ` ` ; s } ` ] ] ] ] / } ` 6 r { ` ` ",
"B s ; r C k C C j k Z a f k C j & 6 C j j c c k c j B 1 9 B B B ",
"j r - w j p f a f p g j j g p p 3 9 a g g p d d a p h 3 7 m f f ",
"j t % q a 3 0 z B B j g a j a a & 0 j s h d d d s x s 3 4 h 4 7 ",
"p w 2 q w ; 4 e r r r f s r p r & 7 s s r r r r r s r 3 4 y 4 2 ",
"& # % # % % - - % % & % # % # & % % # # % % % # # # # % % # % % ",
"k j B j d C q % - 9 j B x j j j B B j B a % r C x j B j j j C a ",
"' ` ` ` ` } B - ; p ) ] ` ' ' [ ` ] ' ] R @ G } ] ` ` ] ' ] ` E ",
"Z C C C C C r ; 9 a Z C C c C C c C C C m @ p A B C C C C C C j ",
"g p s p p d 9 % f g a a p p p p j g a p p & 0 p f p p g g p g p ",
"j j j j d j w - t j g x a B 0 ; a d d x s % f j j a j j d j d s ",
"r e r r r p 9 - w r r r w r 4 % r w w r 9 % 9 e r w r r r f r 0 ",
"3 % - % & & % % & & & % - % % - % % & % & & % % ; ; % 3 # % % % ",
"6 3 z x x M j B j j k d d % e B d j x x x x j j x r & a j x B x ",
"0 0 R ! ) ) Q ` ` / Q ] U % C _ ` ! E ` ` E ` E ] C & U ` E ` ! ",
"7 3 B C C C Z C C C C C j % r A C C C C C C C B C r % B F B A C ",
"3 3 s s r a a a s s a a f % 9 h f g s s s d r e h 0 % t h e s s ",
"3 5 h 0 3 f j d d d j j s 2 e h a d s s d z 9 3 d e 2 y r 3 r j ",
"3 3 e 3 ; w r w r r r r w < 9 r r p p p w r 3 % r 7 % r 0 % 9 p "
};
