/* XPM */
static char *C[] = {
/* columns rows colors chars-per-pixel */
"32 32 235 2 ",
"   c #1B1B1B",
".  c #1D1D1D",
"X  c #1F1F1F",
"o  c #202020",
"O  c #212121",
"+  c #222222",
"@  c #232323",
"#  c #242322",
"$  c #242423",
"%  c #262523",
"&  c #242424",
"*  c #252525",
"=  c #272727",
"-  c #292929",
";  c #2B2B2B",
":  c #2C2C2C",
">  c #2D2D2C",
",  c #2D2D2D",
"<  c #2F2E2C",
"1  c #2E2E2E",
"2  c #2F2F2F",
"3  c #302E2C",
"4  c #3F3627",
"5  c #3D3829",
"6  c #303030",
"7  c #313131",
"8  c #323232",
"9  c #333333",
"0  c #353535",
"q  c #363636",
"w  c #373737",
"e  c #383838",
"r  c #393939",
"t  c #3A3A3A",
"y  c #3B3B3B",
"u  c #3C3C3C",
"i  c #3D3D3C",
"p  c #3D3D3D",
"a  c #3E3E3E",
"s  c #3F3F3F",
"d  c #493A23",
"f  c #42392B",
"g  c #413D30",
"h  c #453F37",
"j  c #4E412B",
"k  c #4C412E",
"l  c #594423",
"z  c #52492C",
"x  c #4F4331",
"c  c #47453D",
"v  c #4C4738",
"b  c #4E4838",
"n  c #5B4F3C",
"m  c #5E513C",
"M  c #694E23",
"N  c #6C5023",
"B  c #6E5226",
"V  c #69512A",
"C  c #76592C",
"Z  c #635630",
"A  c #655830",
"S  c #6A5E39",
"D  c #6B593C",
"F  c #795E35",
"G  c #7A6037",
"H  c #70643F",
"J  c #78613D",
"K  c #404040",
"L  c #414141",
"P  c #424242",
"I  c #434343",
"U  c #474643",
"Y  c #444444",
"T  c #454545",
"R  c #464646",
"E  c #474747",
"W  c #494744",
"Q  c #484848",
"!  c #4B4B4B",
"~  c #4E4E4E",
"^  c #4F4F4F",
"/  c #564F45",
"(  c #555146",
")  c #595043",
"_  c #575448",
"`  c #585448",
"'  c #525252",
"]  c #545454",
"[  c #565656",
"{  c #575756",
"}  c #595959",
"|  c #5B5B5B",
" . c #665740",
".. c #6C5D45",
"X. c #6B6B6B",
"o. c #84632D",
"O. c #85683A",
"+. c #946F34",
"@. c #9A7436",
"#. c #9D7534",
"$. c #A57934",
"%. c #A97E3B",
"&. c #8E7D48",
"*. c #AA813F",
"=. c #B78537",
"-. c #BA8837",
";. c #B3963F",
":. c #C78927",
">. c #C58929",
",. c #C2882C",
"<. c #D89426",
"1. c #DC9627",
"2. c #DD9727",
"3. c #D6962A",
"4. c #DB972B",
"5. c #DC972A",
"6. c #C18930",
"7. c #E39A25",
"8. c #E19926",
"9. c #E59C26",
"0. c #EB9F27",
"q. c #E49D2A",
"w. c #E09F37",
"e. c #EEA126",
"r. c #EFA227",
"t. c #F1A326",
"y. c #F8A725",
"u. c #F8A826",
"i. c #F8AA28",
"p. c #F9AC29",
"a. c #F9AF2D",
"s. c #F9B02D",
"d. c #F9B02E",
"f. c #F9B12F",
"g. c #EDA83A",
"h. c #F9AC31",
"j. c #F9AC32",
"k. c #F4AD3B",
"l. c #F6AE3B",
"z. c #F7AF3B",
"x. c #F8AF3B",
"c. c #ECB036",
"v. c #FAB230",
"b. c #FAB331",
"n. c #FAB533",
"m. c #FAB633",
"M. c #FAB835",
"N. c #FAB936",
"B. c #FBB936",
"V. c #F9B03B",
"C. c #F9B13B",
"Z. c #F9B13C",
"A. c #F9B23C",
"S. c #F9B33D",
"D. c #FAB53E",
"F. c #FAB63E",
"G. c #FAB73F",
"H. c #FBBD3A",
"J. c #FBBE3A",
"K. c #FBBF3C",
"L. c #FBC03D",
"P. c #FCC13D",
"I. c #AA8A43",
"U. c #AB9246",
"Y. c #B19541",
"T. c #B39947",
"R. c #BD9F41",
"E. c #B49A4A",
"W. c #B79C49",
"Q. c #B39A4E",
"!. c #BA9F4B",
"~. c #BEA14A",
"^. c #C1A242",
"/. c #CFAD46",
"(. c #C3A548",
"). c #D6B44C",
"_. c #DDB94B",
"`. c #C1A650",
"'. c #CCAE50",
"]. c #E2BD4A",
"[. c #E2BE4F",
"{. c #F3BF41",
"}. c #FAB840",
"|. c #FAB940",
" X c #FABA40",
".X c #FABA41",
"XX c #FBBB41",
"oX c #FBBC42",
"OX c #FBBD42",
"+X c #FBBE43",
"@X c #FBBF43",
"#X c #EAC34B",
"$X c #FBC043",
"%X c #FCC642",
"&X c #FCC743",
"*X c #FBC044",
"=X c #FBC144",
"-X c #FCC245",
";X c #FCC345",
":X c #FCC346",
">X c #FCC446",
",X c #FCC546",
"<X c #FCC647",
"1X c #FDC844",
"2X c #FDC945",
"3X c #FDCA46",
"4X c #FDCB46",
"5X c #FDCB47",
"6X c #FCC748",
"7X c #F1C94B",
"8X c #F3CB4F",
"9X c #F4CB4E",
"0X c #F7CD4E",
"qX c #FCC848",
"wX c #FDC949",
"eX c #FDCA49",
"rX c #FDCB4A",
"tX c #FDCC48",
"yX c #FDCD49",
"uX c #FDCC4A",
"iX c #FDCD4B",
"pX c #FDCF4A",
"aX c #FDCE4B",
"sX c #FACF4D",
"dX c #FDCF4C",
"fX c #FBD14E",
"gX c #FED04C",
"hX c #FED04D",
"jX c #FED14D",
"kX c #FED24D",
"lX c #FCD24E",
"zX c #FDD34E",
"xX c #FED24E",
"cX c #FED34E",
"vX c #949494",
/* pixels */
"T T T T I 6 @ * e p p y p I R I s p s I Y 6 @ @ : 1 8 p y p y p ",
"T T T T I 6 @ * e p p y p I R I a p s R Y 6 @ @ : : 8 y p y y y ",
"T T T T I 6 @ * e p y p p I T I p p s Q U S R.$X:.V 8 y y y p y ",
"T T T T I 6 @ * e y p p p &.E.~.E.U.W.).9XlXlXcXd.y.o.y p p y p ",
"T T T T I 1 @ * e p p c (.cXcXxXlXcXcXcXsXxXxXxXH.y.>.y y y p y ",
"p p I K p 1 @ * 6 9 v _.cXcXcXxXcXcXxX>XV.D.dXcX&Xy.e.x 8 8 8 8 ",
"p p p p e 1 @ @ 1 f ].cXcXwX}.A.@XcXcX=XV.V.V.tX5Xy.y.9.j : 6 : ",
"e e e e w - @ @ 1 /.cXxX@XV.V.V.}.cXcXdXV.V.$XxX&Xy.y.y.8.f : : ",
"* * * * * @ @ X Z xXxXcXA.V.V.V.x.dXcXcX<XtXcXcX5Xy.y.y.y.d @ @ ",
"* @ @ @ @ @ @ @ Z xXcXcX@XV.V.V.A.xXcXcXxXcXcXcXgXy.y.y.y.N @ @ ",
"6 6 1 6 6 6 6 6 b cXcXcXwXV.V.V.}.xXxXzXzXcXcXcX&Xy.y.y.y.<.6 6 ",
"I I I I I T T T ' [.cXcXtXV.V.<XxXxXrX=XxXcXcXcX&Xy.y.y.y.3.Y Y ",
"T T T T T T T T ] '.cXcXxX@XwXcXxXxXA.A.}.xXxXcX&Xy.y.y.y.$.Y Y ",
"p I p I I T T T ` 9XcXcXcXcXcXcXxXcX6XA.A.tXxXcXL.y.y.y.y.m K K ",
"p p p p e I T T ~.cXcXcXcXcXcXcXxXxXxX@XtXcXcX4Xp.y.y.y.y.G y y ",
"e e e p p I I I fXgXH.H.4XcXcXcXxXxXxXxXcX&Xf.y.y.y.y.y.y.,.y p ",
"1 1 1 3 1 6 6 6 c.i.y.u.u.b.xXxXxXcXcXxXb.y.y.y.y.y.y.y.y.e.p p ",
"1 : : ; : 1 1 6 3.B.P.m.u.y.J.xXcXcXxXm.y.y.y.y.y.y.y.y.y.e.p y ",
"; : ; ; : : Y.#XsXxXcXcX4Xy.a.xXxXxXxXb.y.y.y.y.y.y.y.y.u.2.6 6 ",
"o @ @ z Y.^.zXdX-XxXxXxXxXd.y.N.B.L.b.y.y.y.y.y.y.y.y.y.7.l * * ",
"* * 5 7XcXcXzX Xx.D.dXxXzX4Xy.y.y.y.y.y.y.y.y.y.y.y.y.5.4 * = = ",
"e e H xXcXcXdXx.x.x.<XxXzXzXm.y.y.y.y.y.y.y.y.y.y.y.e. .T T T T ",
"T T ( xXcXcXcXtXD.A.xXxXxX-Xj.y.y.y.y.y.y.y.y.y.y.5...] { ] { { ",
"Q Q _ xXcXcXcXcXxXdXcXtX Xx.j.u.y.y.q.6.#.C N B G T ! ] { { { { ",
"{ { `.xX}.=XxXxXxXxXxXD.A.x.w.@.J ( T T I 6 @ $ 1 6 e T Q Q Q Q ",
"{ { 8XxX}.A.=XzXxXxXwXA.A.x.%.Y T T T T I 6 @ @ 1 1 w I T T T T ",
"~ ~ Q.xXdXOXdXdX<X-Xx.x.x.x.) Y s h I T I 6 @ @ : 1 w I Y T T T ",
"K p I.dXxXxXwXA.A.x.x.x.x.%.u y 7 7 w Y I 6 @ @ : 1 6 y y p p p ",
"u u  .}.D.x.A.x.x.x.x.k.-.h y y 6 , w Y I 6 X @ @ @ = 1 1 1 w e ",
"u t t Z O.=.l.x.g.+.x 1 6 w y r 1 , w Y I 6   vXp } | X.{ ~ 6 p ",
"u u u u e 1 # * , ; ; , 1 w y y 1 1 q Y I 6 X X @ @ - 6 6 6 w p ",
"u u u p e : @ @ ; ; , ; 1 q y r 6 , w Y I 1 @ @ ; : 6 y u u u u "
};
