/* XPM */
static char *b540cf6d06934448dcf7781e76ced4ddCQYqnmidjdSpBDil[] = {
/* columns rows colors chars-per-pixel */
"32 32 141 2 ",
"   c #0A0000",
".  c #140302",
"X  c #1A0401",
"o  c #1C0905",
"O  c #150A09",
"+  c #1B0C0C",
"@  c #210E0C",
"#  c #24110E",
"$  c #241313",
"%  c #291614",
"&  c #231816",
"*  c #2C1916",
"=  c #2A1618",
"-  c #251918",
";  c #2B1C1B",
":  c #311E1C",
">  c #2D211D",
",  c #34211E",
"<  c #39241F",
"1  c #2D1E21",
"2  c #331F20",
"3  c #2E2221",
"4  c #352423",
"5  c #3A2624",
"6  c #352926",
"7  c #3C2925",
"8  c #372728",
"9  c #3B2728",
"0  c #352928",
"q  c #3C2A2A",
"w  c #3F302C",
"e  c #3E3231",
"r  c #412A27",
"t  c #412D2C",
"y  c #43302E",
"u  c #432F30",
"i  c #443332",
"p  c #493635",
"a  c #433834",
"s  c #4D3A36",
"d  c #4B3738",
"f  c #463838",
"g  c #4B3C3B",
"h  c #513D3C",
"j  c #4C413F",
"k  c #53413E",
"l  c #4D4241",
"z  c #544343",
"x  c #594544",
"c  c #5A4844",
"v  c #5B4749",
"b  c #554A4A",
"n  c #5B4B4C",
"m  c #5F5253",
"M  c #614E4D",
"N  c #65524E",
"B  c #645253",
"V  c #685453",
"C  c #6C5956",
"Z  c #6B5758",
"A  c #675B5C",
"S  c #6D5C5B",
"D  c #705E5C",
"F  c #74615E",
"G  c #6F6162",
"H  c #746362",
"J  c #796663",
"K  c #7C6965",
"L  c #7B6A6A",
"P  c #7E7373",
"I  c #806D69",
"U  c #86736F",
"Y  c #837474",
"T  c #897675",
"R  c #8B7874",
"E  c #867A79",
"W  c #8E7D7D",
"Q  c #8B7C7C",
"!  c #927F7B",
"~  c #917E7E",
"^  c #94817D",
"/  c #8A7E80",
"(  c #8A7F81",
")  c #8E8080",
"_  c #8E8283",
"`  c #908282",
"'  c #958585",
"]  c #968686",
"[  c #928383",
"{  c #9A8783",
"}  c #938988",
"|  c #9B8B8C",
" . c #9F8B8C",
".. c #9F9395",
"X. c #A69494",
"o. c #A09694",
"O. c #A59B9A",
"+. c #AE9A9C",
"@. c #ACA2A1",
"#. c #B3A7A7",
"$. c #BEAAAB",
"%. c #BBB0AE",
"&. c #C7B4B0",
"*. c #C6B6B6",
"=. c #C5B7B7",
"-. c #C6B8B8",
";. c #CBBBBB",
":. c #CFBFBF",
">. c #CBBFBF",
",. c #CEC0C0",
"<. c #CCC0C0",
"1. c #D3C3C3",
"2. c #D7C4C0",
"3. c #D2C4C4",
"4. c #D1C6C4",
"5. c #D3C9C7",
"6. c #D7C9C9",
"7. c #D7CCCB",
"8. c #D9C9CA",
"9. c #D8CACA",
"0. c #DDCDCE",
"q. c #DCCCCC",
"w. c #DBC8C9",
"e. c #DCCDD0",
"r. c #DFD1D1",
"t. c #DFD0D3",
"y. c #DED4D2",
"u. c #E0CDC9",
"i. c #E1CECA",
"p. c #E2CFCB",
"a. c #E0CECE",
"s. c #E3CFD0",
"d. c #E0D1D4",
"f. c #E3D4D7",
"g. c #E4D6D6",
"h. c #E4D5D5",
"j. c #E3D7D9",
"k. c #E7DCDA",
"l. c #F3E3E4",
"z. c #FCF2F1",
"x. c #FFFCFB",
/* pixels */
"Q E ..d.e.,.3.9.9.:.1.q.;.X.W Q ! U T R U ^ { U p @ S i.i.&.2.i.",
"/ P m G G H G H H S H L L H S H D H H H K F x y C t h J J I I M ",
"j.Y 1 i g f a f g g g f g g h z M N s 7 g s 7 7 7 y z s < t g q ",
"t.E i e - q l e q q q q 8 5 q i t y 8 < t y 7 7 5 q t p h z h y ",
"f.L $ i n z q 3 q 4 q y q , 4 i < : 7 q 4 8 q < t 8 : 5 p i 8 t ",
"t.Y & n E q   g q 4 4 5 , # $ 4 i 5 q 8 $ : y t 7 % . % V Y D N ",
"6.) ; e B i . $ t q q q q q t i 8 7 r t 8 4 7 q 5 t q 4 t i 8 4 ",
"g.` z n i 4 q 8 q 5 4 4 5 8 < * : t 8 4 t 8 : q 5 q 8 5 t q < : ",
"q.| B g 4 $ * 8 8 q q q q 5 : $ p 2 4 p q + $ d 8 t q 4 8 q t p ",
"*.' B i 4 4 q i q q 7 5 5 7 7 5 : u p 8 4 q q : t 9 8 u i q i M ",
"W L n f q y q 4 q q 5 4 5 t t t 2 t u 9 q i t : u 9 8 q 4 ; i Z ",
"E L z 4 : 5 t q 8 7 7 5 7 7 7 < u 8 4 q t q 9 t q 8 5 8 q p n B ",
"' T B t 4 , : 4 < 7 7 7 7 5 < , q t q 4 4 q t q ; 8 i u 2 9 h x ",
"~ E S k i * . . 5 7 7 5 5 7 7 7 4 q t 9 8 q q 8 d 9 q t 9 f M V ",
"` W C i 4 $ . o 5 7 r 5 < 7 r r 9 5 9 t t 9 8 q u = $ ; 4 z B z ",
"Y ~ H h p 4 @ # 5 7 t r 5 7 7 7 8 9 9 8 9 t t 9 2 H +.T 8 4 n B ",
"T J t h B h @ X 5 7 q q q 7 5 < q q q 9 9 9 8 4 3 #.x.z.@.l 3 l ",
"$.T B L B t : : t q 7 5 5 5 7 q q q q 9 9 9 q 4 ; >.x.x.x.} & e ",
"s.~ t M L M 4 < q q 7 5 5 5 7 7 7 q q 8 9 q q 4 4 H Y Y ) B 3 6 ",
"w. .d x S z 4 i 5 5 7 q q 7 5 5 7 q q 7 9 q q 8 i $ * > & 0 g q ",
"a.` M S f % : q 5 5 7 q q 5 5 5 7 r 7 7 7 q 7 8 q 5 4 6 w i f g ",
"g.Y f B h % $ 5 q q 5 5 5 5 q q 7 r r 7 7 q 7 8 8 p 5 , q 4 4 z ",
"9.W i n n ; @ p q 5 5 5 5 5 q q 7 r r 7 7 7 7 5 7 5 q t 4 , w g ",
"g.Y q z q $ $ . 6 6 7 q q 7 5 6 7 r r 7 5 7 5 4 7 5 5 7 5 4 7 s ",
"l.E g g i $ . + q y q 5 q 4 , 5 X * 7 7 5 5 r t t t * @ < p k c ",
"E E A e 0 3 +   ; q q > 4 p i 4 p 7 : 4 t t 5 : : p * . < h k N ",
"Q W z 4 a +   z g - 4 g 6 ; 5 5 % 4 t t q q q 8 q 7 i t ; 4 p t ",
") H b q ; e 0   . g j > 6 e q 6 t q 8 8 q q q q y ; 4 q q g k ; ",
"P _ m ; 3 3 + + - q g w & > 6 & * q 4 + $ q 4 . ; g : . 4 f 4 q ",
"/ _ A q 0 q 3 1 $ O O     - a 6 4 ; * * * * ; 4 * 5 $ + q i f S ",
"_ ) A g 0 O l 7.<.7.%.4.k.A   > 4 f 4   O g l - q + . $ 4 j B B ",
"/ P A j b O.y.5.t.4.4.y.5.o.P E q 3 z [ ) n m [ -.g.*.S q z B n "
};
