/* XPM */
static char *_9a362ffe1714bf88eeed37d35460bc31vD6dzd4kq6Hp4ZZ[] = {
/* columns rows colors chars-per-pixel */
"32 32 162 2 ",
"   c #060000",
".  c #0C0204",
"X  c #0E050B",
"o  c #0E090B",
"O  c #130405",
"+  c #180606",
"@  c #120806",
"#  c #1A0907",
"$  c #11060D",
"%  c #1B0708",
"&  c #140A0C",
"*  c #1B0C0D",
"=  c #14120F",
"-  c #1B120D",
";  c #0E0611",
":  c #110512",
">  c #150D11",
",  c #190E12",
"<  c #161311",
"1  c #1C1213",
"2  c #1C1916",
"3  c #1C1618",
"4  c #1E191A",
"5  c #220E0D",
"6  c #22100E",
"7  c #200D11",
"8  c #221415",
"9  c #291514",
"0  c #261817",
"q  c #2C1916",
"w  c #221618",
"e  c #231A1A",
"r  c #2C1B1B",
"t  c #311716",
"y  c #331D1B",
"u  c #23211D",
"i  c #2F211E",
"p  c #34211E",
"a  c #3B231E",
"s  c #241E21",
"d  c #281C20",
"f  c #331F20",
"g  c #272222",
"h  c #2B2424",
"j  c #2C2A26",
"k  c #2C2628",
"l  c #352524",
"z  c #3C2523",
"x  c #362924",
"c  c #3D2926",
"v  c #36272A",
"b  c #35292A",
"n  c #3B2C2B",
"m  c #3C2F31",
"M  c #363032",
"N  c #3F3232",
"B  c #412421",
"V  c #422926",
"C  c #422D2D",
"Z  c #44312D",
"A  c #4A322E",
"S  c #443232",
"D  c #4B3432",
"F  c #473833",
"G  c #4D3A35",
"H  c #433739",
"J  c #493638",
"K  c #4D3B3B",
"L  c #523A35",
"P  c #523D3B",
"I  c #5B3F3C",
"U  c #54423D",
"Y  c #5A443E",
"T  c #553F41",
"R  c #4F4141",
"E  c #554444",
"W  c #5B4443",
"Q  c #5E4D46",
"!  c #574748",
"~  c #594648",
"^  c #554949",
"/  c #5D4F4F",
"(  c #5D4B4C",
")  c #5F4F50",
"_  c #5F5053",
"`  c #5F5353",
"'  c #604645",
"]  c #654946",
"[  c #644B46",
"{  c #674F4B",
"}  c #644D4A",
"|  c #684F4B",
" . c #6B4F4C",
".. c #694D4A",
"X. c #645047",
"o. c #60524F",
"O. c #64524C",
"+. c #69514D",
"@. c #6C524E",
"#. c #6C584F",
"$. c #675153",
"%. c #615255",
"&. c #655253",
"*. c #6F5350",
"=. c #685750",
"-. c #685050",
";. c #675853",
":. c #6D5B57",
">. c #6B5A55",
",. c #635759",
"<. c #675B5D",
"1. c #6D5F5E",
"2. c #6E5B5B",
"3. c #745B57",
"4. c #765E5A",
"5. c #775D5C",
"6. c #745D5B",
"7. c #795D59",
"8. c #795D5A",
"9. c #785F5B",
"0. c #7A5E5A",
"q. c #7B5F5C",
"w. c #75625B",
"e. c #77625F",
"r. c #74635C",
"t. c #7A635D",
"y. c #7B625E",
"u. c #7D605C",
"i. c #7F625E",
"p. c #78645D",
"a. c #79655E",
"s. c #7B645E",
"d. c #6F5F60",
"f. c #706164",
"g. c #766466",
"h. c #7F6360",
"j. c #7A6763",
"k. c #7D6561",
"l. c #7E6561",
"z. c #786465",
"x. c #746B66",
"c. c #7A6B66",
"v. c #77686B",
"b. c #7E6E6E",
"n. c #7E6B6D",
"m. c #7E7576",
"M. c #856D6D",
"N. c #867273",
"B. c #8C7676",
"V. c #887879",
"C. c #947C7A",
"Z. c #907C7D",
"A. c #987E7D",
"S. c #918182",
"D. c #989493",
"F. c #D4CBC9",
"G. c #F2EDEC",
"H. c #F5F4EF",
"J. c #F5F5F2",
"K. c #FAF5F4",
"L. c #FAF9F5",
"P. c #FFFCFB",
/* pixels */
"c.;.:.j.e.4.y.q.8.y.l.l.p.w.w.w.M.8.3.8.y.y.p.p.p.p.y.8.8.8.u.u.",
"F F F K P L D L L D A A A P Q =.*. ...+.{ W P G Y A V L Y L V B ",
"o.U x l Z D V V P W W W G n p q t y z A L P L L Z U Y D L ] I B ",
"n i n U U S z y p p l p p l n Z D C c c z l y y F c c Z A V a z ",
"K F 1.b.S + % % + % * * % O O O % + O O O O O # . # 5 q W C.A.5.",
"H l ^ / 8 . % 8 8 * O . . O * 0 7 * * * % O O O 0 O O r S Z y 9 ",
"` ^ ^ R v , O O O * w w 1 & . . O O O * & & & & . O * r S U D y ",
",.<.H w w & . & & & $ . . . X & $ $ $ $ $ . X & w . . r P E C r ",
"v.%.m n 1 $ & & . X & & X X X $ $ $ $ $ $ $ $ $ O & O 8 J K K &.",
"f.` m b 1 , > X X X & $ X X X $ : $ $ $ $ $ $ $ . & O r K P P &.",
"d.! l v 1 & $ . X X o o X X X : : $ $ $ $ $ $ $ . $ O r K T E -.",
"n.! r n 0 O . & . X o o X X X : $ $ $ $ $ $ $ $ O O O q S P W { ",
"B.&.z n 8 & & , X o o o $ X X $ $ $ $ $ $ $ $ $ $ O O 6 c L W [ ",
"N.6.S l % * , . X o o o $ $ $ $ $ $ $ $ $ $ $ $ & O O 5 p L ' ] ",
"M.:.S C 8 & O . o o o & $ $ $ $ $ $ $ $ $ $ $ $ O O + 5 a P ....",
"B.&.S E l O . & $ o o & & : $ $ $ $ $ $ $ $ $ O O O # 9 z Y @. .",
"P C ~ &.l . $ & X X $ : : : : : : : ; ; X X X $ . w 1 # c Z Y X.",
":.N.Z.~ O O d $ $ $ $ : : : : : $ : $ ; X X X $ > . . l :.Y Y #.",
"P f E N.! . . , $ $ : : : : : : $ : : : : ; $ $ , $ . r o.G c a ",
"z.2.:.E 8 $ $   & $ : : : : : : $ : : : : $ $ $   1 * 5 G G A a ",
"( &.:.! r O & , & $ : : : : ; : $ $ $ $ : $ $ $ . O O q P V A Y ",
"~ ( ( S * . .   & $ $ $ $ : : : $ $ $ $ $ $ $ $ , O O q P y a L ",
"( E K J v 1 & & $ o X $ $ : : : $ $ $ $ $ $ $ $ O * + q U A A P ",
"P K J l * . . , X X o X $ $ : : $ $ $ $ $ $ $ $ $ O + q L z V L ",
"g.~ n v w & &   . X & X . $ > $ . . $ X X $ $ . $ * + q G L L +.",
"$.g.K r w & . & 3 X X > X . X $ 1 1 > $ X $ $ $ . O O 8 Z P Y 4.",
"V.S r S 1   & . . o > & & 4 s 1 * & & . . $ & $ 1 . . q U G D [ ",
"1./ l r 0 .   & 2 .   . o > > & & & & & o o o . 1 . . r K Y U X.",
"V.%.S n w & 1 o   < g s 3 g k e g e 2 3 < = < 1   & & O r U O.O.",
"S./ N N 1   3 3 o . . o < k M b j u 2 < < < e g u 1 @ * p F U U ",
"S.) J h * m.P.P.P.G.P.K.D.e   k u 2 < = < 2 u j g & . - x U ;.w.",
"1.g.n ^ F.P.G.J.K.K.L.J.G.K.P.K.L.H.J.L.L.J.J.L.K.P.F.x.x G O.Q "
};
