/* XPM */
static char *result[] = {
/* columns rows colors chars-per-pixel */
"32 32 196 2 ",
"   c #010101",
".  c #0A0404",
"X  c #0C0C06",
"o  c #04050B",
"O  c #050909",
"+  c #0B0B0B",
"@  c #140809",
"#  c #0F100D",
"$  c #10120F",
"%  c #070512",
"&  c #0D0D11",
"*  c #100D15",
"=  c #0F1011",
"-  c #121314",
";  c #1C1615",
":  c #181A17",
">  c #15151C",
",  c #161919",
"<  c #1B1B1B",
"1  c #210412",
"2  c #221E1E",
"3  c #23211E",
"4  c #140F20",
"5  c #1C1D22",
"6  c #1F1E2C",
"7  c #281933",
"8  c #1F2222",
"9  c #232323",
"0  c #282827",
"q  c #23232B",
"w  c #252929",
"e  c #2B2C2C",
"r  c #312E2E",
"t  c #2B302E",
"y  c #292B31",
"u  c #2D2D39",
"i  c #382D39",
"p  c #2D3233",
"a  c #333333",
"s  c #383535",
"d  c #313239",
"f  c #343939",
"g  c #3C3C3C",
"h  c #422515",
"j  c #402A22",
"k  c #4B302E",
"l  c #45353A",
"z  c #68473E",
"x  c #372745",
"c  c #3B3D49",
"v  c #3C3A59",
"b  c #4C3946",
"n  c #3D4142",
"m  c #3F4249",
"M  c #434343",
"N  c #434549",
"B  c #454B4C",
"V  c #4A4C4C",
"C  c #524F4F",
"Z  c #414051",
"A  c #4B4E52",
"S  c #46465B",
"D  c #544C5C",
"F  c #4C5152",
"G  c #535353",
"H  c #565658",
"J  c #565A5C",
"K  c #595C5C",
"L  c #694943",
"P  c #7A584B",
"I  c #5B615F",
"U  c #6F6159",
"Y  c #74615C",
"T  c #4B4B61",
"R  c #585B61",
"E  c #575676",
"W  c #5A5A7C",
"Q  c #5D6161",
"!  c #5C6869",
"~  c #636768",
"^  c #656C6C",
"/  c #776A66",
"(  c #676E71",
")  c #696A7D",
"_  c #687374",
"`  c #6C7475",
"'  c #737878",
"]  c #747B7C",
"[  c #855646",
"{  c #85645B",
"}  c #856A5B",
"|  c #89756C",
" . c #9E7A64",
".. c #847770",
"X. c #87847E",
"o. c #A0827A",
"O. c #565282",
"+. c #635F94",
"@. c #676983",
"#. c #676788",
"$. c #777D85",
"%. c #797E83",
"&. c #686696",
"*. c #706E9A",
"=. c #7A7A99",
"-. c #6C66A2",
";. c #7572A3",
":. c #7B77B6",
">. c #817F81",
",. c #7A8384",
"<. c #7A8585",
"1. c #7C8688",
"2. c #7C8C8E",
"3. c #8B8985",
"4. c #81878C",
"5. c #838A8D",
"6. c #838D91",
"7. c #898F92",
"8. c #8A9294",
"9. c #899598",
"0. c #8E9A9C",
"q. c #959899",
"w. c #929A9D",
"e. c #AE988C",
"r. c #AFA19B",
"t. c #BCA79B",
"y. c #899DA1",
"u. c #949EA2",
"i. c #8687B2",
"p. c #8EA1A4",
"a. c #95A1A4",
"s. c #9AA4A5",
"d. c #95A6AA",
"f. c #9AA6A9",
"g. c #9BAAAD",
"h. c #9EACB1",
"j. c #9FB2B3",
"k. c #A2A9AB",
"l. c #AFA8AD",
"z. c #A2AEB1",
"x. c #A1AAB8",
"c. c #BBAEB9",
"v. c #A4B3B5",
"b. c #ABB5B5",
"n. c #A5B5B9",
"m. c #AAB7BA",
"M. c #A7B9BB",
"N. c #ACBBBD",
"B. c #B0BEBE",
"V. c #CB9E80",
"C. c #D5B298",
"Z. c #E7AD87",
"A. c #E9B28D",
"S. c #CABBB5",
"D. c #8A86C7",
"F. c #ACB6C4",
"G. c #ABBFC1",
"H. c #B5BEC5",
"J. c #ADC3C5",
"K. c #B2C3C5",
"L. c #B3C7C9",
"P. c #BBC6C8",
"I. c #B4CACC",
"U. c #BBCACB",
"Y. c #BACFD1",
"T. c #BCD3D4",
"R. c #BBD5D7",
"E. c #BED6D9",
"W. c #C0C6C0",
"Q. c #CEC9D3",
"!. c #C4D5D6",
"~. c #C3DADD",
"^. c #CCDDDF",
"/. c #D9D7D6",
"(. c #DCDBDC",
"). c #CDCCE2",
"_. c #C5DEE1",
"`. c #CCDFE1",
"'. c #CBE3E5",
"]. c #C8E6EA",
"[. c #CCE7E9",
"{. c #DCE7E6",
"}. c #D6E9EB",
"|. c #D2EBED",
" X c #D5EFF1",
".X c #DAF5F6",
"XX c #DCF7F9",
"oX c #DDF9FB",
"OX c #E4E4E3",
"+X c #E4ECED",
"@X c #E9EAE9",
"#X c #ECEFF0",
"$X c #EBFFFF",
"%X c #F3F5F5",
"&X c azure",
"*X c #FEFEFF",
/* pixels */
"        g N e e F e   O 2.|.~.I.I.'.|.0.=   + f a a g r 9 3 e a ",
"  + 8 e 0 0 < 2 t < < V M. X'.I.I.~.'.j.B < + < 0 e a s n g s a ",
"  w <.2.8   - - O - ! H.@X%X^.I.I.!.R.T.n._ -   : r 0 M ( ^ M e ",
"  f J.[.R < 9 3 - m J.*X*X#X`.Y.T.T.I.[.$XL.N , 9 a 9 c ` ` M 0 ",
"  t g.oXI.<.B g R u.~..X}.`.~.!.~.E.T.'..X~.0.~ V g t f N M a 0 ",
"  8 6.XX$XJ.^ J q.K.m.j.G.J.J.L.L.I.I.N.v.n.N.s.^ M g f f r 9 < ",
"  < ,.}.XXM.^ I w.z.4.] u.h.g.s.g.z.z.0.] 1.k.f.` V N A V f 9 - ",
"+ - F a.!.h.F f ' 9.,.] 8.a.f.a.w.w.f.w.] ,.8.] M g ^ ` A e : : ",
"9 + + B m.s.t . B 8.v.g.u.u.N.N.a.u.v.K.m.g.7.V X w 5.9.p . # 9 ",
"t < O : R K 5 = V f.[.'.m.z.~.E.z.h.Y..XXX^.u.V O < ( ` q o : t ",
"a f s 2 O o q S <.N. X[.N.b.~.~.v.h.T.oXoX[.m.$.m q q 0 0 r a s ",
"n b g a e 9 u J 4.s.a.6.$.6.z.b.q.8.u.d.y.u.q.q.) d     e C N g ",
"F e - g l.k.d < U | l 4 6 b / ..| Y N y 4 i Y 3.4.m     e C V n ",
"H 3   M *X*Xg   k P b 4 o 1 L  . .L 1 o 4 b z { X.! t - r V M M ",
"G 3   M #X#Xn   h o.c.2.7 1 [ V.V.[ 1 7 >.l.} P X.5.I f g l g g ",
"V 3   n (./.n   k S.*X).x . [ A.A.[ @ x ).*Xr...s.a.I a a M g g ",
"l :   M @X/.f   ^ @X*XQ.7 . z Z.Z.[ . 7 Q.*X!.k.K.7.e o 0 M M g ",
"g -   N @X/.r O y.*X%XB.D l  .C.C.| l D Q.*X$XT.u.J > & e M g a ",
"a +   M @X/.0 O d.$X}.K.x.f.b.W.W.b.u.n.'.$X&XJ.B < y m g a e e ",
"g =   M OX(.g o ` L.~._.[.'.].]._.]. X!.p.p.g.^     8 c 0 ; 0 a ",
"n :   N OXOXV O 8 Q L. X~.U._.|.].|.`.u.f , 5 -       O   + e M ",
"f $   s OX@Xb     < <.g.] ^ 0.M.v.d.5.H 9 = + , 0 0 - # - < 0 a ",
":     r OXOXa     O 8 y - : V ( ( B 9 e I ,.] ] ,.' K K ~ N < + ",
"    e ' +X{.^ w = O     o 9 M K ~ y   & $.L.F.h.x.u.$.%.4.J -   ",
"  < 2.'.}.'.I.2.0     + G ,.1.5.0.K O % O.D.D.>.i.=.#.@.#.T &   ",
"- y 2.Y.B.P.{.g.a   + n u.U.N.F.P.1.: % O.:.:.+.-.+.E W #.S *   ",
"M a p N / e.t./ 3   ; G u.H.v.m.P.<.= o O.D.:.+.-.&.E W &.T *   ",
"K a     j P z j .   $ b ' 6.5.7.w.^ 2 & v &.*.;.;.*.#.E E c > & ",
"V e     X ; @ .       : M G G C C V l 2 + 6 E *.*.#.@.D y 8 0 e ",
"l a 9 =     O $ - - - + 2 2 2 ; ; 9 r 3 X = u T S Z c d : < a g ",
"n n g 9     w n g n M e @   . o o . # : d a < - - = * - 9 a g g ",
"g n V t + $ M Q K K I N $             - F F =           e M g g "
};
