/* XPM */
static char *result[] = {
/* columns rows colors chars-per-pixel */
"32 32 189 2 ",
"   c #010101",
".  c #0E0501",
"X  c #070805",
"o  c #0D0A07",
"O  c #070609",
"+  c #070808",
"@  c #0B0B0C",
"#  c #170A07",
"$  c #10100F",
"%  c #090615",
"&  c #0B0A14",
"*  c #110F1A",
"=  c #0F1010",
"-  c #131414",
";  c #171A15",
":  c #13131C",
">  c #16191A",
",  c #1B1C1C",
"<  c #25030D",
"1  c #2B0D18",
"2  c #221914",
"3  c #2A1D13",
"4  c #201F1F",
"5  c #3B2215",
"6  c #171524",
"7  c #1C1C25",
"8  c #1B1628",
"9  c #1A1B2A",
"0  c #25132E",
"q  c #1D2223",
"w  c #232424",
"e  c #282726",
"r  c #292924",
"t  c #23252A",
"y  c #252A2A",
"u  c #2C2C2C",
"i  c #33282E",
"p  c #2E302F",
"a  c #31312F",
"s  c #292936",
"d  c #2C3131",
"f  c #343434",
"g  c #373B37",
"h  c #363739",
"j  c #333A3A",
"k  c #3C3C3C",
"l  c #482F3C",
"z  c #403F3F",
"x  c #312341",
"c  c #363645",
"v  c #332F52",
"b  c #3E3C59",
"n  c #3E4141",
"m  c #434444",
"M  c #464746",
"N  c #474B4A",
"B  c #4B4C4C",
"V  c #54434D",
"C  c #53514B",
"Z  c #444653",
"A  c #534550",
"S  c #4D5253",
"D  c #4F5A5A",
"F  c #535454",
"G  c #545858",
"H  c #565A5B",
"J  c #5B5B5B",
"K  c #755849",
"L  c #715C54",
"P  c #74635A",
"I  c #494768",
"U  c #595A63",
"Y  c #4C4972",
"T  c #514F77",
"R  c #555477",
"E  c #5D6263",
"W  c #5B6266",
"Q  c #646464",
"!  c #616768",
"~  c #656B6B",
"^  c #686D6D",
"/  c #7C6967",
"(  c #6A716E",
")  c #636E70",
"_  c #696F70",
"`  c #677374",
"'  c #6D7375",
"]  c #6F767A",
"[  c #6D7C7B",
"{  c #747B7D",
"}  c #787A7F",
"|  c #805B52",
" . c #99634E",
".. c #986C5C",
"X. c #98755E",
"o. c #A26F5A",
"O. c #A5775A",
"+. c #837770",
"@. c #AC8265",
"#. c #595683",
"$. c #585587",
"%. c #5F5B8C",
"&. c #615E8D",
"*. c #636385",
"=. c #767F82",
"-. c #6A6794",
";. c #6C6A9B",
":. c #75779B",
">. c #726FA2",
",. c #7370A3",
"<. c #7E7DAC",
"1. c #817CBA",
"2. c #748282",
"3. c #7A8183",
"4. c #7B8689",
"5. c #7D888A",
"6. c #80878B",
"7. c #838C8D",
"8. c #8E8E8C",
"9. c #9C9188",
"0. c #848896",
"q. c #849093",
"w. c #8A9295",
"e. c #8C949A",
"r. c #8C9B9D",
"t. c #939B9D",
"y. c #989D9C",
"u. c #AE9083",
"i. c #9AA29D",
"p. c #B8A08D",
"a. c #B3A69F",
"s. c #8E9FA1",
"d. c #939DA3",
"f. c #8581BC",
"g. c #8AA1A5",
"h. c #94A2A3",
"j. c #9BA5A6",
"k. c #9BA5A9",
"l. c #9CAAAC",
"z. c #9EAFB1",
"x. c #9DB1B3",
"c. c #9CB4B8",
"v. c #A8A7AD",
"b. c #A3AFB2",
"n. c #A4B2B5",
"m. c #A5B6B7",
"M. c #A6B9BB",
"N. c #ACBCBD",
"B. c #B2BFBE",
"V. c #C5BAB3",
"C. c #8987C3",
"Z. c #9C9DD4",
"A. c #A6B8C6",
"S. c #ADBDC3",
"D. c #B2BEC2",
"F. c #ADC2C4",
"G. c #B2C3C5",
"H. c #B4CBCC",
"J. c #B7CACD",
"K. c #B7CED1",
"L. c #BBCED0",
"P. c #BBD2D4",
"I. c #BED7D9",
"U. c #BFD9DD",
"Y. c #C4C4C9",
"T. c #C8CCD3",
"R. c #C5D3D4",
"E. c #C4D6D9",
"W. c #C2DADC",
"Q. c #C9D9DB",
"!. c #D3E0DC",
"~. c #CDCCE3",
"^. c #C5DEE1",
"/. c #C9DFE1",
"(. c #CAE3E5",
"). c #C9E4E7",
"_. c #D3E4E5",
"`. c #D5E6E8",
"'. c #D2EBED",
"]. c #D7F1F4",
"[. c #DBF4F6",
"{. c #DFF8FC",
"}. c #EBEFEF",
"|. c #EEF4F4",
" X c #E3FDFD",
".X c #EDFFFF",
"XX c #F2F6F6",
"oX c #F3FDFD",
"OX c #FFFEFF",
/* pixels */
"M M M m z k k @   = r.'.(.J.P.K.F.U.'.r.X   - u       @ f z k k ",
"M M m M m f , . , N x.(.W.H.K.R.E.`.(.x.D y @ ; t w @ @ u m k k ",
"M M m B B e   O ` m.J.L.P.H.H.Q.|.|.E.P.K.2.X = 2.q.y   w M m k ",
"m M B m k 4 7 H K..X'.P.W.W.I.(.XXXX_.U.P.4.y S P.P.j   4 M z h ",
"z B F f - y 2.H.'.[.'.(.(.).(./.E.`.[.n.n y ` K.].l.y   0 M k g ",
"m m m ,   , l.].F.r.l.x.n.l.l.M.H.^.W.2.= q l.oX.Xg.q   , z g a ",
"m k w     > q.N.{ N H E E S B 2.K.P.5.D H 5.F. X.Xx.t   ; k g a ",
"k e + X w N 5.w.) B B F H S M ^ n.s.B M r.R.L.G.m.[ w o > a e r ",
"p - O 7 2.x.j.t.k.r.4.6.h.k.q.=.' F f F e.L.L.q.j - - w q 0 4 4 ",
"p @   d F. XS.l.(.'.G.N.(.'.L.q.D k F _ =.8.w.~ w @ - w w w w w ",
"m ,   y G. XB.b.(.'.G.G.W.'.J.0.G G 3.7.! M M E ' H , @ w g g a ",
"B u - y 2.l.t.e.j.r.] } j.N.v.' k S e.k.' m z { B.e.w   w B M k ",
"M m k u q k P / V t * i P 9.w.S @ , 3.m.t.{ { t.G.q.7   r C B m ",
"z M F u   . K K 1   6 l K | +.U ; , ] n.b.b.n.n.h.E -   u B M k ",
"k m B r   2 X...1 0 5.v.| L 8.4.N N 6.v.j.l.n.h.{ k o @ u M m k ",
"f z m 0   3 @.o.< x ~.OXa.+.y.0.D B 7.b.v.d.w.3.E u     u m z g ",
"u f z >   # O. .. 0 T.OX!.l.l.' 0 y 3.G.N.w.~ G J k @   u M z k ",
"y u y , w C p.u.V U Y.}.'.U.E.2.X   E l.h.{ G z n d @ $ u k k f ",
"a , @ w 2.G.!.R.D.D.L.R.J.(.{.l.,   f ( Q H J c ; @ > w p p u p ",
"f $   y M.].A.g.m.D.P.(.(.W.F.[ q $ f F B N M u + X w f p e e u ",
"k -   w z.N.S q d W F..X.XN.N ; w M B H H z , O - w p f p p p a ",
"k w - w ! ^ d o   @ ~ m.M.) * % Z E m k M d X X u m z k z z z m ",
"z z z u > f ) ~ >   @ , q 7 v $.,.R , X - - - , k B B C A F F F ",
"M G J a   > e.d.d + > > - s :.Z.C.#.s &     > f z M B F G J J J ",
"F J Q z   : ;.-.: ; [ z.s.r.F.A.<.&.&.b X   $ a f h z M B B B C ",
"F J J z . 7 &.R % , i..X X{.{.N.U I ,.>.c : $ 7 w i f z z m m m ",
"B F F a   6 %.$.* o P V._..X.Xm.d > Y <.;.b : + , f f k z m z m ",
"z M B u   8 ;.;.9   5 L 7.c.M.` @   t *.f.&.6   , z c z k k k k ",
"k m M r   9 ;.,.t   . , w d y -     O c >.-.0   r m z z k k f f ",
"h k m e   : I Y 6             @ > =   * R ;.Z q w a f k k h f f ",
"k k m u @ O : : O           w n B y   & T 1.-.b - @ r h h f h k ",
"k z m p @           X   X , N ^ ~ h X : T 1.1.Y &   , h f f k z "
};
