/* XPM */
static char *result[] = {
/* columns rows colors chars-per-pixel */
"32 32 184 2 ",
"   c #010101",
".  c #0B0403",
"X  c #070904",
"o  c #050409",
"O  c #0B0C0B",
"+  c #120F0E",
"@  c #0C0B13",
"#  c #0B0816",
"$  c #100F1B",
"%  c #0E1112",
"&  c #131414",
"*  c #151A13",
"=  c #13131B",
"-  c #151818",
";  c #1C1D1D",
":  c #23000C",
">  c #2D0B16",
",  c #2B0D1A",
"<  c #28211F",
"1  c #171522",
"2  c #1E1E22",
"3  c #1F162F",
"4  c #25132F",
"5  c #1D2223",
"6  c #232424",
"7  c #292726",
"8  c #22252B",
"9  c #282728",
"0  c #252A2B",
"q  c #2B2C2C",
"w  c #35212D",
"e  c #322E2C",
"r  c #2E302F",
"t  c #34342F",
"y  c #3D322C",
"u  c #2F2F31",
"i  c #28263C",
"p  c #2F3234",
"a  c #343434",
"s  c #32363C",
"d  c #353A3A",
"f  c #383938",
"g  c #3C3C3C",
"h  c #42342D",
"j  c #442E3A",
"k  c #433E3C",
"l  c #40403F",
"z  c #664639",
"x  c #2F2E45",
"c  c #3A3857",
"v  c #3E4242",
"b  c #434343",
"n  c #444844",
"m  c #45454B",
"M  c #464A4B",
"N  c #4B4C4C",
"B  c #58524E",
"V  c #494F51",
"C  c #534651",
"Z  c #4E5253",
"A  c #4B5556",
"S  c #535455",
"D  c #545758",
"F  c #545A5B",
"G  c #585858",
"H  c #60554F",
"J  c #775A4C",
"K  c #675A52",
"L  c #74625E",
"P  c #434161",
"I  c #4D4B6C",
"U  c #595861",
"Y  c #4F4C74",
"T  c #565477",
"R  c #5C6264",
"E  c #656464",
"W  c #61656A",
"Q  c #656B6C",
"!  c #696B6C",
"~  c #616872",
"^  c #696F70",
"/  c #647171",
"(  c #6C7375",
")  c #6F767A",
"_  c #6E7C7B",
"`  c #737B7D",
"'  c #787A7F",
"]  c #825F52",
"[  c #85624A",
"{  c #85655C",
"}  c #996D5C",
"|  c #837770",
" . c #A97F62",
".. c #B7836E",
"X. c #595683",
"o. c #5A5586",
"O. c #5E5B8B",
"+. c #605D8D",
"@. c #666789",
"#. c #727E81",
"$. c #787F83",
"%. c #6B6999",
"&. c #726FA3",
"*. c #7977A8",
"=. c #7E7CB5",
"-. c #748283",
";. c #7A8184",
":. c #7B8689",
">. c #7E8B8C",
",. c #80878A",
"<. c #838C8D",
"1. c #9C9188",
"2. c #848E92",
"3. c #858997",
"4. c #849194",
"5. c #8A9395",
"6. c #8B9A9C",
"7. c #959A9A",
"8. c #929C9E",
"9. c #B3A69F",
"0. c #8589AC",
"q. c #939FA2",
"w. c #8583BC",
"e. c #8CA1A2",
"r. c #93A1A3",
"t. c #9BA4A6",
"y. c #9BA6A9",
"u. c #97A8AA",
"i. c #9BAAAD",
"p. c #9DAFB0",
"a. c #9DB1B3",
"s. c #ABA4A9",
"d. c #A1ABAC",
"f. c #ADABAA",
"g. c #B0ACAA",
"h. c #A3AFB2",
"j. c #A4B2B5",
"k. c #A6B6B8",
"l. c #ABBBBD",
"z. c #B6BABA",
"x. c #8B89C6",
"c. c #918ED0",
"v. c #AEBDC1",
"b. c #B2BEC2",
"n. c #A2A4DC",
"m. c #ACC2C3",
"M. c #B2C2C4",
"N. c #BEC0C1",
"B. c #B5C6CB",
"V. c #B4CBCD",
"C. c #BACCCD",
"Z. c #B7CED1",
"A. c #BACDD0",
"S. c #B7D0D2",
"D. c #BCD2D4",
"F. c #BDD7D9",
"G. c #BFD9DD",
"H. c #BBCAE0",
"J. c #C3C4C7",
"K. c #CEC8D5",
"L. c #C4D4D6",
"P. c #C5D6D9",
"I. c #C3DADC",
"U. c #C9DADC",
"Y. c #D5DAD9",
"T. c #CCCBE2",
"R. c #C5DEE1",
"E. c #CAE3E5",
"W. c #C9E4E7",
"Q. c #D3E3E5",
"!. c #D3ECEE",
"~. c #D6EEF1",
"^. c #DBF2F5",
"/. c #DBF5F9",
"(. c #E2E3E3",
"). c #E6E8EA",
"_. c #EDEDEE",
"`. c #F1F0EF",
"'. c #EDF2F3",
"]. c #E3FDFE",
"[. c #ECFFFF",
"{. c #F3F6F7",
"}. c #F5FCFC",
"|. c #FDFDFD",
/* pixels */
"b N N f +       M e     6.~.I.m.S.D.V.E.!.6.O   ; M g a f g g g ",
"b N Z a + O 6 q q ; 6 A a.W.Q.P.F.S.V.U.E.p.V ; O 6 a g l g g g ",
"b N Z q X 8 4.-.* O -.S.S.P.'.'.P.B.V.D.S.C.k./ O   6 M b f g g ",
"b N B 6   a Z.F.V 8 >.S.F.Q.{.{.Q.F.I.I.D.!.[.S.F ; ; f g l g g ",
"l n S 7   8 u.~.S./ 0 v a./.Q.L.E.W.W.E.E.Q.^.!.V.-.8 & q b k a ",
"l N N 7   5 e.[.}.i.6 & -.F.E.V.k.i.i.a.j.u.6.m.~.i.;   & f f a ",
"l m N 6   6 a.[.].m.>.F S <.D.S.-.N Z R R F M ` l.4.=     ; q f ",
"a f g 6 O 5 _ j.M.Z.L.5.n V e.j./ n S F A V N ^ 5.,.M 6 O O ; u ",
"6 < 5 6 6 & & d 2.A.L.5.Z f Z ( #.2.y.t.,.:.q.u.8.t.p.-.8 X & 9 ",
"4 < < 6 6 % O 6 W 5.2.` ! S l S 5.Z.!.R.v.b.!.E.i.l.].m.8   O a ",
"t a d < O ; F ( R M N W 2.;.F D <.B.W.R.M.M.!.R.i.b.].m.-   ; N ",
"v n Z 5   6 8.b.` l v ( y.5.Z g ( d.z.d.$.) 6.y.5.7.u.>.V r q l ",
"l n S 7   ; 2.M.7.` ' 8.k.$.; O Z 5.1.L w $ 8 C L K 0 V z.f.g & ",
"l M N q o & R t.j.h.d.j.j.) 2 - F | ] H j 1 o , { z   q {.`.b   ",
"g b n q X X g ) t.j.i.t.d.;.m M :.1.J { s.3.3 > } [ . p ).(.g   ",
"f g b 7 o X q R $.5.8.d.j.<.B A 2.7.| 9.|.T.i > ..... 0 (.(.b   ",
"e a f 2   O g S S Q 5.l.b.-.0 5 ( i.d.Y.|.K.4 : .. .  5 _.{.b   ",
"9 q q 6 O O p v n S ` q.i.R   o $.P.G.!._.J.U y ] { y F N.f.a O ",
"9 9 7 6 6 & X ; l G F W ^ f   ; i./.W.Z.C.P.M.` 4 k g.N.E e ; q ",
"9 6 6 9 q ; . o q n m N S a & 6 ` m.P.I.F.~.[.e.X 0 _.|.a   O b ",
"q q 9 q q 7 ; O o ; l S S Z n 6 * M l././.!.^.>.  a (._.f   & b ",
"a a a a q q q ; o O a n g n R m # = #.l.a.4.:.d   t (._.n   6 S ",
"b l l g g a 6 6 9 7 2 & X ; T %.o.c x s 5 - %     a {.|.g   q ! ",
"N N N N n a ; 9 N f o   @ i o.x.n.@.o   X 5 0 a g E z.s.f - k ! ",
"G G G S Z g 2 q m t     c +.O.0.H.>.    Z e.i.C.Y.s.g ; 9 M Z N ",
"S G G S N k 6 < u 9 = x &.&.P ~ F.V.F 0 ^ i.a.U.|.(.Z % 6 N n l ",
"N N N N n f 9 & @ 2 P %.*.I = d l.].D.#.d q 0 F d.Q.C.-.9 & t N ",
"l b b k f f e O   $ @.w.@.8   O Q D.].l.s     + N 8.P.r.5   7 N ",
"g g g g f a u +   @ O.&.x O     % A m.v.R e h h 9 d D n - + 7 g ",
"g g g g f q 4 % = c %.X.=   O - O & F ( S b B H e O   X - q a a ",
"g g g g g 6 X & P &.=.Y @   0 M v q ; ; & ; k Z n 6 X   4 f g f ",
"k g f v k ;   = O.c.x.Y = X f Q ! m X     o q V D d O X 7 l b g "
};
