/* XPM */
static char *result[] = {
/* columns rows colors chars-per-pixel */
"32 32 164 2 ",
"   c #010101",
".  c #070800",
"X  c #0A0A06",
"o  c #05040B",
"O  c #06090A",
"+  c #0B0B0C",
"@  c #12150F",
"#  c #0D0E12",
"$  c #100F19",
"%  c #0F1112",
"&  c #141415",
"*  c #151814",
"=  c #15141E",
"-  c #17191B",
";  c #1B1C1C",
":  c #201F1F",
">  c #20201F",
",  c #171722",
"<  c #181721",
"1  c #1C1D22",
"2  c #1E1E28",
"3  c #201F31",
"4  c #1F2222",
"5  c #232424",
"6  c #282827",
"7  c #23232C",
"8  c #242929",
"9  c #2C2C2C",
"0  c #31332D",
"q  c #212033",
"w  c #2D2E32",
"e  c #333333",
"r  c #35363D",
"t  c #323939",
"y  c #3B3B3B",
"u  c #2D2B42",
"i  c #313146",
"p  c #393849",
"a  c #403F40",
"s  c #413F5A",
"d  c #3E4343",
"f  c #434344",
"g  c #45464E",
"h  c #43494A",
"j  c #4A4C4C",
"k  c #474C53",
"l  c #4C4F51",
"z  c #47455E",
"x  c #4A4A5B",
"c  c #4C5252",
"v  c #525354",
"b  c #575857",
"n  c #565758",
"m  c #555A5B",
"M  c #5A5C5C",
"N  c #5C655C",
"B  c #494866",
"V  c #4B4A6A",
"C  c #4F5064",
"Z  c #525564",
"A  c #555C63",
"S  c #5A5F64",
"D  c #53526C",
"F  c #58596D",
"G  c #4B4673",
"H  c #4E4B73",
"J  c #545475",
"K  c #595875",
"L  c #55547A",
"P  c #58567D",
"I  c #5A5A7B",
"U  c #605E7F",
"Y  c #5D6266",
"T  c gray39",
"R  c #676768",
"E  c #666E6E",
"W  c #63657C",
"Q  c #66697F",
"!  c #647171",
"~  c #697173",
"^  c #575581",
"/  c #5D5C82",
"(  c #605F84",
")  c #615E8B",
"_  c #636384",
"`  c #6C6F82",
"'  c #65638D",
"]  c #68668C",
"[  c #6A6C88",
"{  c #787E80",
"}  c #666393",
"|  c #686692",
" . c #6B6997",
".. c #67629B",
"X. c #6A669A",
"o. c #6C6A9B",
"O. c #77779E",
"+. c #6E69A3",
"@. c #716EA2",
"#. c #746FAC",
"$. c #7471A6",
"%. c #7673AB",
"&. c #7875AD",
"*. c #7A75B2",
"=. c #7D7AB4",
"-. c #817DB9",
";. c #758283",
":. c #798285",
">. c #7D868D",
",. c #7D8B8C",
"<. c #7E8591",
"1. c #82878A",
"2. c #80888B",
"3. c #848D93",
"4. c #898F92",
"5. c #839394",
"6. c #8C949B",
"7. c #8E999C",
"8. c #929B9D",
"9. c #8F97A1",
"0. c #959EA0",
"q. c #8585B4",
"w. c #8380BB",
"e. c #94A1A4",
"r. c #99A2A3",
"t. c #9BA7AB",
"y. c #9CA9AB",
"u. c #9DAFB4",
"i. c #A0ABAC",
"p. c #A1AFB1",
"a. c #A5B2B5",
"s. c #A9B8BA",
"d. c #AABBBD",
"f. c #8D8ACB",
"g. c #9191C5",
"h. c #A6BEC0",
"j. c #AFBEC2",
"k. c #AAB1C9",
"l. c #AEC2C3",
"z. c #B2C2C5",
"x. c #B3C7C9",
"c. c #B5CBCD",
"v. c #B8CBCD",
"b. c #B6CED1",
"n. c #B9CED0",
"m. c #BCD2D4",
"M. c #BFD6D8",
"N. c #C0D4D7",
"B. c #C0D7D9",
"V. c #C3DBDC",
"C. c #CAD9DB",
"Z. c #CBE3E5",
"A. c #CBE6EA",
"S. c #D4E6E9",
"D. c #D3ECED",
"F. c #D6EFF1",
"G. c #DCF5F8",
"H. c #DDF8FA",
"J. c #EAEDED",
"K. c #EFF5F5",
"L. c #E1FBFC",
"P. c #E9FFFF",
"I. c #F6FFFF",
"U. c white",
/* pixels */
"        y h 6 6 l 9   O ,.D.V.c.c.Z.F.7.%   + t 9 y h e         ",
"  + 4 9 6 6 ; 5 w ; ; j s.F.Z.c.c.C.Z.u.k 4 X ; 6 9 6 5 6 4 +   ",
"  8 :.,.4   & *   - ! z.J.K.Z.c.c.M.m.m.d.~ %   : :   1 ,.:.8   ",
"  t x.A.A ; 5 : & d h.I.U.J.C.c.b.m.x.A.L.l.h & 6 9 ; m A.x.t   ",
"  w y.H.x.;.j d T 7.m.D.Z.C.N.m.m.m.c.V.Z.m.8.R d l :.x.H.y.9   ",
"  4 ,.L.P.l.E n 4.z.c.c.c.c.m.m.m.m.m.m.v.v.z.1.n E l.P.H.5.4   ",
"  > :.S.G.d.! b 1.d.v.m.m.n.m.m.m.m.m.M.M.c.d.1.n ! d.H.S.:.4   ",
"O & c e.M.y.c y :.j.m.m.N.m.m.m.m.m.m.m.m.m.z.:.y c y.m.r.l & O ",
"> + + h p.8.6 - 5.Z.V.b.m.m.m.m.m.m.m.m.n.V.Z.5.- 8 7.p.h # + 5 ",
"e - . ; ~ Y + 1 e.F.Z.c.n.m.m.m.m.m.m.m.c.Z.F.e.4 + Y ~ ;   * e ",
"y e 9 5 5 - = k u.Z.V.c.m.m.m.m.m.m.m.m.b.V.Z.u.k = - 5 > 9 e y ",
"y f v 9     i >.x.V.B.n.m.m.m.m.m.m.m.m.n.B.V.z.<.r     0 v f y ",
"a j v 6     S a.M.B.M.n.n.m.n.m.m.m.m.n.n.M.B.m.a.S     9 v j y ",
"f f j 0 & e 1.z.v.x.m.M.M.M.M.M.M.m.M.M.B.m.x.v.z.>.e & w j f a ",
"a y a y y M 7.a.i.p.c.V.V.M.M.B.B.B.M.B.V.c.p.i.a.8.M y y a a y ",
"y y y e y v :.7.8.y.z.n.c.x.x.x.x.x.x.c.n.z.y.r.0.~ v y y y y a ",
"w e e 5 * 5 c { 8.i.a.a.i.t.y.y.y.t.t.y.i.a.i.8.{ c 1 - 0 f a y ",
"6 0 e :     & h :.7.6.4.8.r.0.8.0.r.r.8.3.6.9.:.j &     6 f y e ",
"5 9 w ;       - Z [ _ Q 6.i.i.r.r.t.i.6.` _ [ Z -       5 y e 9 ",
"6 5 : ; 1 2 , q B / L I <.8.6.3.4.6.7.2.I L / B 7 , 2 1 ; 5 6 9 ",
"e : X & d ) / ^ ..' P J W Q Q W _ Q Q W J P } } ^ P U s $ X 5 y ",
"y 5   o i P $.-.*.o._ K L P L P P P P P K U o.*.-.$.I i o X 0 j ",
"g e &   o 3 ) -.=.} I I ' X.X.} } | X.' I I | =.w.) 3 o   & f M ",
"b a & . & w / &.&.| K I o.&.&.$.$.%.&.o.I K | &.*.I w @ X ; g T ",
"R a X & N 2.O.+.#. .I I  .$.$.@.@.$.$. .K I  .#.+.O.2.N - O y b ",
"R y o - >.k.q...X.] / _  .@.@.o.o.@.@. .( U | o...q.k.2.;   9 v ",
"b y . , _ g.-.) / ( } o.o.o.o.o.o.+.o.+.o.] ( ) X.-.g._ =   9 j ",
"v 0   o G *.*.' K I o.*.*.$.&.&.&.%.%.*.*.X.K D ) @.$.G # . 0 j ",
"v 9     G -.*.' K I @.=.-.=.=.-.-.-.=.-.-.X.D x D ] ] z & + 0 f ",
"e 6 , u ( *.&.| I I _ ' P J L L J J J P ' ( C z D U W D p 7 6 9 ",
"+ 1 B | @.@.@.X./ K A g 2 , = < < = = 2 g A C V P ) ) ) ) s - X ",
"  = / f.=.o.@.+./ F v 0                 0 v C J ) } ) +.&.H $   "
};
